<?xml version="1.0" encoding="UTF-8" standalone="no"?>
<svg width="111px" height="111px" viewBox="0 0 111 111" version="1.1" xmlns="http://www.w3.org/2000/svg" xmlns:xlink="http://www.w3.org/1999/xlink">
    <!-- Generator: Sketch 41.2 (35397) - http://www.bohemiancoding.com/sketch -->
    <title>homepage-icon-2</title>
    <desc>Created with Sketch.</desc>
    <defs>
        <circle id="path-1" cx="55" cy="55" r="55"></circle>
    </defs>
    <g id="Page-1" stroke="none" stroke-width="1" fill="none" fill-rule="evenodd">
        <g id="homepage-icon-2">
            <g id="Group-14" transform="translate(1.000000, 1.000000)">
                <mask id="mask-2" fill="white">
                    <use xlink:href="#path-1"></use>
                </mask>
                <use id="Mask" stroke-opacity="0.1" stroke="#000000" fill="#F4F4F4" xlink:href="#path-1"></use>
                <g mask="url(#mask-2)">
                    <g transform="translate(20.000000, 19.000000)">
                        <rect id="Rectangle-2" fill="#FAA100" x="49.8" y="14.4" width="20.4" height="38.4"></rect>
                        <polygon id="Path-2" fill="#FFFFFF" points="3.2774088 18.5149249 13.2336547 18.5149249 11.2688534 25.6537449 40.5024877 25.6537449 39.8296143 19.2804807 48.3607624 19.0926682 48.3607624 69.3551031 3.05698801 69.3551031"></polygon>
                        <rect id="Rectangle-16" fill="#FFFFFF" x="50.4" y="4.2" width="19.2" height="10.2"></rect>
                        <polygon id="Path-3" fill="#BABABA" points="26.3622797 1.8 36.3103711 7.85855997 37.4671863 15.2038171 40.8939051 22.2793528 40.8939051 25.5086509 11.4 25.5086509 13.0987351 16.9485646 16.0340671 13.5603775 18.6511884 4.0413295"></polygon>
                        <path d="M67.5,54 L51.75,54 L59.625,67.5 L67.5,54 Z M51.75,51.75 L67.5,51.75 L67.5,15.75 L51.75,15.75 L51.75,51.75 Z M67.5,9 C67.5,6.1176 63.9492,4.5 59.625,4.5 C55.3008,4.5 51.75,6.1176 51.75,9 L51.75,13.5 L67.5,13.5 L67.5,9 Z M25.875,18 C28.371,18 30.375,15.9966 30.375,13.5 C30.375,11.004 28.371,9 25.875,9 C23.379,9 21.375,11.004 21.375,13.5 C21.375,15.9966 23.379,18 25.875,18 L25.875,18 Z M12.375,24.75 L39.375,24.75 C39.375,21.3048 37.4412,18.1758 34.488,16.0668 C34.6992,15.258 34.875,14.379 34.875,13.5 C34.875,8.508 30.867,4.5 25.875,4.5 C20.883,4.5 16.875,8.508 16.875,13.5 C16.875,14.379 17.0508,15.258 17.262,16.0668 C14.3088,18.1758 12.375,21.3048 12.375,24.75 L12.375,24.75 Z M47.25,20.25 L40.746,20.25 C41.3088,21.6918 41.625,23.2386 41.625,24.75 L41.625,27 L10.125,27 L10.125,24.75 C10.125,23.2386 10.4412,21.6918 11.004,20.25 L4.5,20.25 L4.5,67.5 L47.25,67.5 L47.25,20.25 Z M72,9 L72,54 C72,54.879 71.754,55.758 71.262,56.4258 L63.492,69.75 C62.6838,71.121 61.242,72 59.625,72 C58.008,72 56.5662,71.121 55.758,69.75 L51.75,62.9298 L51.75,67.5 C51.75,69.996 49.746,72 47.25,72 L4.5,72 C2.004,72 0,69.996 0,67.5 L0,20.25 C0,17.754 2.004,15.75 4.5,15.75 L11.0742,15.75 C11.496,15.258 11.883,14.8008 12.375,14.3088 L12.375,13.5 C12.375,6.012 18.387,0 25.875,0 C29.5662,0 32.9412,1.512 35.4372,3.9378 C37.863,6.4338 39.375,9.8088 39.375,13.5 L39.375,14.3088 C39.867,14.8008 40.254,15.258 40.6758,15.75 L47.25,15.75 L47.25,9 C47.25,3.6216 52.242,0 59.625,0 C67.008,0 72,3.6216 72,9 L72,9 Z" id="Page-1" fill="#626262"></path>
                    </g>
                </g>
            </g>
        </g>
    </g>
</svg>