<?xml version="1.0" encoding="UTF-8" standalone="no"?>
<svg width="111px" height="111px" viewBox="0 0 111 111" version="1.1" xmlns="http://www.w3.org/2000/svg" xmlns:xlink="http://www.w3.org/1999/xlink">
    <!-- Generator: Sketch 41.2 (35397) - http://www.bohemiancoding.com/sketch -->
    <title>homepage-icon-1</title>
    <desc>Created with Sketch.</desc>
    <defs>
        <circle id="path-1" cx="55" cy="55" r="55"></circle>
    </defs>
    <g id="Page-1" stroke="none" stroke-width="1" fill="none" fill-rule="evenodd">
        <g id="homepage-icon-1">
            <g id="Group-13" transform="translate(1.000000, 1.000000)">
                <mask id="mask-2" fill="white">
                    <use xlink:href="#path-1"></use>
                </mask>
                <use id="Mask" stroke-opacity="0.1" stroke="#000000" fill="#F4F4F4" xlink:href="#path-1"></use>
                <g mask="url(#mask-2)">
                    <g transform="translate(2.000000, 12.000000)">
                        <g id="Group-12" transform="translate(45.000000, 0.000000)">
                            <rect id="Rectangle-14" fill="#FFFFFF" x="1.85454545" y="1.85454545" width="48.2181818" height="48.2181818"></rect>
                            <path d="M40.640625,6.375 C39.321,6.375 38.25,7.446 38.25,8.765625 C38.25,10.08525 39.321,11.15625 40.640625,11.15625 C41.96025,11.15625 43.03125,10.08525 43.03125,8.765625 C43.03125,7.446 41.96025,6.375 40.640625,6.375 L40.640625,6.375 Z M31.078125,6.375 C29.7585,6.375 28.6875,7.446 28.6875,8.765625 C28.6875,10.08525 29.7585,11.15625 31.078125,11.15625 C32.39775,11.15625 33.46875,10.08525 33.46875,8.765625 C33.46875,7.446 32.39775,6.375 31.078125,6.375 L31.078125,6.375 Z M19.921875,6.375 C18.60225,6.375 17.53125,7.446 17.53125,8.765625 C17.53125,10.08525 18.60225,11.15625 19.921875,11.15625 C21.2415,11.15625 22.3125,10.08525 22.3125,8.765625 C22.3125,7.446 21.2415,6.375 19.921875,6.375 L19.921875,6.375 Z M7.96875,43.03125 L43.03125,43.03125 L43.03125,41.4375 L7.96875,41.4375 L7.96875,43.03125 Z M7.96875,38.25 L43.03125,38.25 L43.03125,36.65625 L7.96875,36.65625 L7.96875,38.25 Z M7.96875,33.46875 L43.03125,33.46875 L43.03125,31.875 L7.96875,31.875 L7.96875,33.46875 Z M7.96875,28.6875 L43.03125,28.6875 L43.03125,27.09375 L7.96875,27.09375 L7.96875,28.6875 Z M7.96875,23.90625 L43.03125,23.90625 L43.03125,22.3125 L7.96875,22.3125 L7.96875,23.90625 Z M10.359375,6.375 C9.03975,6.375 7.96875,7.446 7.96875,8.765625 C7.96875,10.08525 9.03975,11.15625 10.359375,11.15625 C11.679,11.15625 12.75,10.08525 12.75,8.765625 C12.75,7.446 11.679,6.375 10.359375,6.375 L10.359375,6.375 Z M3.1875,47.8125 L47.8125,47.8125 L47.8125,3.1875 L3.1875,3.1875 L3.1875,47.8125 Z M51,3.1875 L51,47.8125 C51,49.5805 49.5805,51 47.8125,51 L3.1875,51 C1.4195,51 0,49.5805 0,47.8125 L0,3.1875 C0,1.4195 1.4195,0 3.1875,0 L47.8125,0 C49.5805,0 51,1.4195 51,3.1875 L51,3.1875 Z" id="Page-1" fill="#626262"></path>
                        </g>
                        <g id="Group-10" transform="translate(27.000000, 18.000000)">
                            <circle id="Oval-2" fill="#BABABA" cx="26.4727273" cy="26.4727273" r="24.5818182"></circle>
                            <path d="M21.125,14.625 L36.5625,26 L21.125,37.375 L21.125,14.625 Z M48.75,26 C48.75,13.4571667 38.5428333,3.25 26,3.25 C13.4064667,3.25 3.25,13.4571667 3.25,26 C3.25,38.5939667 13.4064667,48.75 26,48.75 C38.5428333,48.75 48.75,38.5939667 48.75,26 L48.75,26 Z M52,26 C52,40.3455 40.3455,52 26,52 C11.6545,52 0,40.3455 0,26 C0,11.6545 11.6545,0 26,0 C40.3455,0 52,11.6545 52,26 L52,26 Z" id="Page-1" fill="#626262"></path>
                        </g>
                        <g id="Group-11" transform="translate(0.000000, 43.000000)">
                            <rect id="Rectangle-15" fill="#FFFFFF" x="11.3235294" y="11.3898305" width="33.9705882" height="32.5423729"></rect>
                            <path d="M35.5314642,27.4917966 C35.5314642,32.0449704 31.8588592,35.7395066 27.3317647,35.7395066 C22.8050953,35.7395066 19.1324904,32.0449704 19.1324904,27.4917966 C19.1324904,22.9386228 22.8050953,19.2440866 27.3317647,19.2440866 C31.8588592,19.2440866 35.5314642,22.9386228 35.5314642,27.4917966 M40.0866166,27.4917966 C40.0866166,20.4182991 34.3640868,14.662263 27.3317647,14.662263 C20.2994426,14.662263 14.5769128,20.4182991 14.5769128,27.4917966 C14.5769128,34.5652941 20.2994426,40.3213302 27.3317647,40.3213302 C34.3640868,40.3213302 40.0866166,34.5652941 40.0866166,27.4917966 M54.6635294,14.662263 L54.6635294,40.3213302 C54.6635294,44.3592359 51.3896863,47.6522479 47.3752856,47.6522479 L7.28866898,47.6522479 C3.27426821,47.6522479 0,44.3592359 0,40.3213302 L0,14.662263 C0,10.6243573 3.27426821,7.33134531 7.28866898,7.33134531 L13.6658824,7.33134531 L15.1180896,3.43668838 C15.8297392,1.54623183 18.050562,9.23705556e-14 20.0435208,9.23705556e-14 L34.6204337,9.23705556e-14 C36.6133926,9.23705556e-14 38.8342154,1.54623183 39.5458649,3.43668838 L40.9976471,7.33134531 L47.3752856,7.33134531 C51.3896863,7.33134531 54.6635294,10.6243573 54.6635294,14.662263" id="Fill-1" fill="#626262"></path>
                        </g>
                    </g>
                </g>
            </g>
        </g>
    </g>
</svg>