<?xml version="1.0" encoding="UTF-8" standalone="no"?>
<svg width="111px" height="111px" viewBox="0 0 111 111" version="1.1" xmlns="http://www.w3.org/2000/svg" xmlns:xlink="http://www.w3.org/1999/xlink">
    <!-- Generator: Sketch 41.2 (35397) - http://www.bohemiancoding.com/sketch -->
    <title>homepage-icon-3</title>
    <desc>Created with Sketch.</desc>
    <defs>
        <circle id="path-1" cx="55" cy="55" r="55"></circle>
    </defs>
    <g id="Page-1" stroke="none" stroke-width="1" fill="none" fill-rule="evenodd">
        <g id="homepage-icon-3">
            <g id="Page-1" transform="translate(1.000000, 1.000000)">
                <mask id="mask-2" fill="white">
                    <use xlink:href="#path-1"></use>
                </mask>
                <use id="Mask" stroke-opacity="0.1" stroke="#000000" fill="#F4F4F4" xlink:href="#path-1"></use>
                <g mask="url(#mask-2)">
                    <g transform="translate(4.000000, 10.000000)">
                        <g id="Group-3" stroke="none" stroke-width="1" fill="none" transform="translate(0.000000, 28.931224)">
                            <path d="M58.2866468,13.6022881 L49.7162897,6.31521343 L39.9086706,17.7538403 L48.5672421,24.9964448 L58.2866468,13.6022881 Z M62.5277183,17.3558701 L18.6150992,68.8070791 C17.59875,70.0439522 16.1850595,70.7501985 14.771369,70.8391388 C13.2249802,70.9273254 11.8112897,70.5293552 10.6185119,69.5140791 L2.04815476,62.1388179 C-0.381884921,60.1512284 -0.691011905,56.6177358 1.34168651,54.1892134 L45.3425198,2.60534776 C46.358869,1.36922836 47.7725595,0.794885075 49.18625,0.662228358 C50.5999405,0.574041791 52.1018452,0.971258209 53.3391071,1.98728806 L61.9094643,9.36254925 C64.33875,11.3938552 64.648631,14.9273478 62.5277183,17.3558701 L62.5277183,17.3558701 Z" id="Fill-1" fill="#4C4C4C"></path>
                        </g>
                        <path d="M47.0183235,0.921860025 L49.2956547,7.92746178 C49.3849261,8.20429824 49.6436309,8.39189137 49.9342184,8.39189137 L57.3027514,8.39189137 C57.9531572,8.39189137 58.2237042,9.22422206 57.6971852,9.6066935 L51.7360429,13.9359059 C51.5010223,14.1071074 51.4026416,14.4103526 51.491913,14.687189 L53.7692442,21.6927908 C53.9705603,22.3111196 53.2618548,22.8256347 52.7353359,22.4431633 L46.7741936,18.1139509 C46.539173,17.9427494 46.2203466,17.9427494 45.9844151,18.1139509 L40.0232728,22.4431633 C39.4967538,22.8256347 38.7880483,22.3111196 38.9893644,21.6927908 L41.2666957,14.687189 C41.3559671,14.4103526 41.2575863,14.1071074 41.0225658,13.9359059 L35.0614235,9.6066935 C34.5349045,9.22422206 34.8054514,8.39189137 35.4558572,8.39189137 L42.8243902,8.39189137 C43.1158886,8.39189137 43.3736825,8.20429824 43.4638649,7.92746178 L45.7402852,0.921860025 C45.9416013,0.303531208 46.8170074,0.303531208 47.0183235,0.921860025" id="Fill-4" stroke="#4C4C4C" stroke-width="2" fill="#FAA100"></path>
                        <g id="Group-8" stroke="none" stroke-width="1" fill="none" transform="translate(70.873016, 34.207343)">
                            <path d="M12.7524966,0.521439914 L15.0298278,7.52704166 C15.1190992,7.80387813 15.377804,7.99147126 15.6683915,7.99147126 L23.0369245,7.99147126 C23.6873303,7.99147126 23.9578773,8.82380195 23.4313583,9.20627339 L17.470216,13.5354858 C17.2351954,13.7066872 17.1368147,14.0099325 17.2260861,14.2867689 L19.5034173,21.2923707 C19.7047334,21.9106995 18.9960279,22.4252146 18.4695089,22.0427432 L12.5083667,17.7135308 C12.2733461,17.5423293 11.9545197,17.5423293 11.7185882,17.7135308 L5.75744589,22.0427432 C5.2309269,22.4252146 4.52222142,21.9106995 4.7235375,21.2923707 L7.00086875,14.2867689 C7.09014014,14.0099325 6.99175943,13.7066872 6.75673884,13.5354858 L0.795596555,9.20627339 C0.269077569,8.82380195 0.539624522,7.99147126 1.19003033,7.99147126 L8.55856333,7.99147126 C8.85006173,7.99147126 9.10785563,7.80387813 9.19803795,7.52704166 L11.4744583,0.521439914 C11.6757743,-0.0968889031 12.5511805,-0.0968889031 12.7524966,0.521439914" id="Fill-6" stroke="#4C4C4C" stroke-width="2" fill="#FAA100"></path>
                        </g>
                        <path d="M83.1823438,6.9591716 L81.2839604,14.0767828 C81.209264,14.3581725 81.3240415,14.6550432 81.5681714,14.8134957 L87.7534031,18.8176073 C88.2990516,19.1709381 88.0740513,20.0169285 87.4236455,20.051533 L80.0660437,20.4467535 C79.7754562,20.4622345 79.5276826,20.6634873 79.4529861,20.9439664 L77.5546028,28.0615776 C77.3869912,28.6908342 76.512496,28.7372771 76.2783864,28.1307867 L73.6293946,21.2572287 C73.5246374,20.9849454 73.2568232,20.8119226 72.9662358,20.8274036 L65.608634,21.2226241 C64.9591391,21.2572287 64.6439564,20.440379 65.149524,20.0305881 L70.8692692,15.3872028 C71.0951804,15.2041629 71.1780753,14.8963645 71.073318,14.6249919 L68.4234154,7.75143385 C68.1893057,7.14403279 68.8697723,6.59218115 69.4154209,6.9455119 L75.6006526,10.9496236 C75.8447825,11.108076 76.1636089,11.0907737 76.3895201,10.9077338 L82.1092653,6.26434849 C82.6148328,5.85455767 83.3499554,6.33082567 83.1823438,6.9591716" id="Fill-9" stroke="#4C4C4C" stroke-width="2" fill="#FAA100"></path>
                    </g>
                </g>
            </g>
        </g>
    </g>
</svg>