<?xml version="1.0" encoding="UTF-8" standalone="no"?>
<svg width="72px" height="110px" viewBox="0 0 72 110" version="1.1" xmlns="http://www.w3.org/2000/svg" xmlns:xlink="http://www.w3.org/1999/xlink">
    <!-- Generator: Sketch 41.2 (35397) - http://www.bohemiancoding.com/sketch -->
    <title>unclear</title>
    <desc>Created with Sketch.</desc>
    <defs></defs>
    <g id="Page-1" stroke="none" stroke-width="1" fill="none" fill-rule="evenodd">
        <g id="unclear">
            <circle id="Oval-4-Copy-2" stroke="#4C4C4C" fill="#F4F4F4" cx="36" cy="40" r="35"></circle>
            <text id="UNCLEAR" font-family="SFUIDisplay-Medium, SF UI Display" font-size="10" font-weight="400" line-spacing="13" letter-spacing="0.666666687" fill="#4C4C4C">
                <tspan x="11.8619791" y="90">UNCLEAR</tspan>
            </text>
            <path d="M32.1400873,54.0538428 L39.7587773,54.0538428 L39.7587773,61.1608297 L32.1400873,61.1608297 L32.1400873,54.0538428 Z M23.1,33.4720087 C23.1,31.3872822 23.4127043,29.4921046 24.0381223,27.7864192 C24.6635402,26.0807338 25.5732255,24.6214471 26.7672052,23.4085153 C27.961185,22.1955835 29.40152,21.2574706 31.0882533,20.5941485 C32.7749866,19.9308264 34.6606883,19.5991703 36.7454148,19.5991703 C38.4890044,19.5991703 40.1093812,19.8550193 41.6065939,20.3667249 C43.1038066,20.8784305 44.4114791,21.6175498 45.5296507,22.5841048 C46.6478222,23.5506599 47.5290797,24.7540976 48.1734498,26.1944541 C48.8178198,27.6348107 49.14,29.2646634 49.14,31.0840611 C49.14,32.4107053 48.9978617,33.5572877 48.7135808,34.5238428 C48.4292999,35.4903978 48.0502644,36.324276 47.5764629,37.0255022 C47.1026614,37.7267284 46.5625358,38.352137 45.9560699,38.9017467 C45.349604,39.4513565 44.7431471,39.9914821 44.1366812,40.5221397 C43.4165029,41.1286057 42.7531908,41.7161107 42.1467249,42.2846725 C41.540259,42.8532343 41.0096093,43.4881188 40.5547598,44.189345 C40.0999104,44.8905712 39.7493025,45.7149734 39.5029258,46.6625764 C39.256549,47.6101794 39.1333624,48.7662377 39.1333624,50.130786 L32.9929258,50.130786 C32.9929258,48.4630048 33.0782088,47.0510975 33.2487773,45.8950218 C33.4193458,44.7389462 33.6941466,43.7250262 34.0731878,42.8532314 C34.452229,41.9814367 34.9165475,41.2138898 35.4661572,40.5505677 C36.0157669,39.8872456 36.6696032,39.2334093 37.4276856,38.5890393 C38.0341515,38.0583816 38.6121807,37.5656355 39.1617904,37.110786 C39.7114001,36.6559366 40.2041463,36.1537145 40.6400437,35.6041048 C41.075941,35.0544951 41.417073,34.4385624 41.6634498,33.7562882 C41.9098266,33.0740141 42.0330131,32.2590877 42.0330131,31.3114847 C42.0330131,30.1743611 41.8340195,29.1983447 41.4360262,28.3834061 C41.0380329,27.5684675 40.5547627,26.9146313 39.9862009,26.4218777 C39.4176391,25.9291242 38.8111823,25.5690404 38.1668122,25.3416157 C37.5224422,25.114191 36.9538889,25.0004803 36.4611354,25.0004803 C34.11108,25.0004803 32.3769925,25.7680273 31.258821,27.3031441 C30.1406494,28.838261 29.5815721,30.8945286 29.5815721,33.4720087 L23.1,33.4720087 Z" id="?" stroke="#4C4C4C" fill="#FFFFFF"></path>
        </g>
    </g>
</svg>