<svg width="111" height="111" viewBox="0 0 111 111" xmlns="http://www.w3.org/2000/svg" xmlns:xlink="http://www.w3.org/1999/xlink"><title>homepage-icon-3</title><defs><circle id="a" cx="55" cy="55" r="55"/></defs><g transform="translate(1 1)" fill="none" fill-rule="evenodd"><mask id="b" fill="#fff"><use xlink:href="#a"/></mask><use stroke-opacity=".1" stroke="#000" fill="#F4F4F4" xlink:href="#a"/><g mask="url(#b)"><path d="M62.287 52.534l-8.57-7.288-9.808 11.44 8.657 7.242 9.72-11.394zm4.24 3.753l-43.912 51.45c-1.016 1.238-2.43 1.944-3.844 2.033-1.545.09-2.96-.31-4.15-1.325l-8.572-7.375c-2.43-1.988-2.74-5.52-.706-7.95l44-51.583c1.017-1.237 2.43-1.81 3.844-1.944 1.414-.088 2.916.31 4.153 1.326l8.57 7.374c2.43 2.03 2.74 5.565.618 7.993z" fill="#4C4C4C"/><path d="M51.018 10.922l2.278 7.005c.09.277.348.465.638.465h7.37c.65 0 .92.832.393 1.215l-5.96 4.33c-.236.17-.334.473-.245.75l2.277 7.006c.2.618-.508 1.133-1.035.75l-5.96-4.33c-.236-.17-.555-.17-.79 0l-5.962 4.33c-.526.383-1.235-.132-1.034-.75l2.277-7.006c.09-.277-.01-.58-.244-.75l-5.962-4.33c-.525-.383-.255-1.215.396-1.215h7.368c.292 0 .55-.188.64-.465l2.276-7.005c.202-.618 1.077-.618 1.278 0M87.626 44.73l2.277 7.004c.09.277.348.465.638.465h7.37c.65 0 .92.83.394 1.214l-5.96 4.33c-.236.17-.334.473-.245.75l2.276 7.006c.202.618-.507 1.133-1.033.75l-5.962-4.33c-.234-.17-.552-.17-.788 0l-5.962 4.33c-.526.383-1.235-.132-1.033-.75l2.277-7.006c.09-.277-.01-.58-.244-.75l-5.96-4.33c-.528-.383-.257-1.215.393-1.215h7.37c.29 0 .548-.19.638-.466l2.277-7.005c.202-.62 1.077-.62 1.28 0M87.182 16.96l-1.898 7.117c-.075.28.04.578.284.736l6.185 4.005c.546.353.32 1.2-.33 1.234l-7.357.395c-.29.015-.538.216-.613.497l-1.898 7.118c-.168.63-1.043.675-1.277.07l-2.65-6.875c-.103-.272-.37-.445-.662-.43l-7.357.396c-.65.034-.966-.783-.46-1.192l5.72-4.643c.225-.183.308-.49.203-.762l-2.65-6.874c-.234-.606.447-1.158.992-.804L79.6 20.95c.245.158.564.14.79-.042l5.72-4.644c.505-.41 1.24.067 1.072.695" stroke="#4C4C4C" stroke-width="2" fill="#FAA100"/></g></g></svg>