<svg width="111" height="111" viewBox="0 0 111 111" xmlns="http://www.w3.org/2000/svg" xmlns:xlink="http://www.w3.org/1999/xlink"><title>homepage-icon-2</title><defs><circle id="a" cx="55" cy="55" r="55"/></defs><g transform="translate(1 1)" fill="none" fill-rule="evenodd"><mask id="b" fill="#fff"><use xlink:href="#a"/></mask><use stroke-opacity=".1" stroke="#000" fill="#F4F4F4" xlink:href="#a"/><g mask="url(#b)"><path fill="#FAA100" d="M69.8 33.4h20.4v38.4H69.8z"/><path fill="#FFF" d="M23.277 37.515h9.957l-1.965 7.14H60.5l-.672-6.375 8.53-.187v50.262H23.058M70.4 23.2h19.2v10.2H70.4z"/><path fill="#BABABA" d="M46.362 20.8l9.948 6.06 1.157 7.344 3.427 7.075v3.23H31.4l1.7-8.56 2.934-3.39 2.617-9.52"/><path d="M87.5 73H71.75l7.875 13.5L87.5 73zm-15.75-2.25H87.5v-36H71.75v36zM87.5 28c0-2.882-3.55-4.5-7.875-4.5-4.324 0-7.875 1.618-7.875 4.5v4.5H87.5V28zm-41.625 9c2.496 0 4.5-2.003 4.5-4.5 0-2.496-2.004-4.5-4.5-4.5s-4.5 2.004-4.5 4.5c0 2.497 2.004 4.5 4.5 4.5zm-13.5 6.75h27c0-3.445-1.934-6.574-4.887-8.683.21-.81.387-1.688.387-2.567 0-4.992-4.008-9-9-9s-9 4.008-9 9c0 .88.176 1.758.387 2.567-2.953 2.11-4.887 5.238-4.887 8.683zm34.875-4.5h-6.504c.563 1.442.88 2.99.88 4.5V46h-31.5v-2.25c0-1.51.315-3.058.878-4.5H24.5V86.5h42.75V39.25zM92 28v45c0 .88-.246 1.758-.738 2.426l-7.77 13.324c-.808 1.37-2.25 2.25-3.867 2.25s-3.06-.88-3.867-2.25l-4.008-6.82v4.57c0 2.496-2.004 4.5-4.5 4.5H24.5c-2.496 0-4.5-2.004-4.5-4.5V39.25c0-2.496 2.004-4.5 4.5-4.5h6.574c.422-.492.81-.95 1.3-1.44v-.81c0-7.488 6.013-13.5 13.5-13.5 3.692 0 7.067 1.512 9.563 3.938 2.426 2.496 3.938 5.87 3.938 9.562v.81c.492.49.88.948 1.3 1.44h6.575V28c0-5.378 4.992-9 12.375-9S92 22.622 92 28z" fill="#626262"/></g></g></svg>