<svg width="111" height="111" viewBox="0 0 111 111" xmlns="http://www.w3.org/2000/svg" xmlns:xlink="http://www.w3.org/1999/xlink"><title>homepage-icon-1</title><defs><circle id="a" cx="55" cy="55" r="55"/></defs><g transform="translate(1 1)" fill="none" fill-rule="evenodd"><mask id="b" fill="#fff"><use xlink:href="#a"/></mask><use stroke-opacity=".1" stroke="#000" fill="#F4F4F4" xlink:href="#a"/><g mask="url(#b)"><path fill="#FFF" d="M48.855 13.855h48.218v48.218H48.855z"/><path d="M87.64 18.375c-1.32 0-2.39 1.07-2.39 2.39s1.07 2.39 2.39 2.39 2.39-1.07 2.39-2.39-1.07-2.39-2.39-2.39zm-9.562 0c-1.32 0-2.39 1.07-2.39 2.39s1.07 2.39 2.39 2.39 2.39-1.07 2.39-2.39-1.07-2.39-2.39-2.39zm-11.156 0c-1.32 0-2.39 1.07-2.39 2.39s1.07 2.39 2.39 2.39 2.39-1.07 2.39-2.39-1.07-2.39-2.39-2.39zM54.97 55.03h35.06v-1.593H54.97v1.594zm0-4.78h35.06v-1.594H54.97v1.594zm0-4.78h35.06v-1.595H54.97v1.594zm0-4.782h35.06v-1.594H54.97v1.593zm0-4.782h35.06v-1.593H54.97v1.593zm2.39-17.53c-1.32 0-2.39 1.07-2.39 2.39s1.07 2.39 2.39 2.39 2.39-1.07 2.39-2.39-1.07-2.39-2.39-2.39zM50.187 59.81H94.81V15.188H50.188v44.624zM98 15.188v44.624C98 61.583 96.58 63 94.812 63H50.188C48.417 63 47 61.58 47 59.812V15.188C47 13.418 48.42 12 50.188 12H94.81C96.582 12 98 13.42 98 15.188z" fill="#626262"/><g transform="translate(29 30)"><circle fill="#BABABA" cx="26.473" cy="26.473" r="24.582"/><path d="M21.125 14.625L36.563 26 21.124 37.375v-22.75zM48.75 26C48.75 13.457 38.543 3.25 26 3.25 13.406 3.25 3.25 13.457 3.25 26c0 12.594 10.156 22.75 22.75 22.75 12.543 0 22.75-10.156 22.75-22.75zM52 26c0 14.346-11.654 26-26 26C11.655 52 0 40.346 0 26 0 11.655 11.655 0 26 0c14.346 0 26 11.655 26 26z" fill="#626262"/></g><g><path fill="#FFF" d="M13.324 66.39h33.97v32.542h-33.97z"/><path d="M37.53 82.492c0 4.553-3.67 8.248-8.198 8.248-4.527 0-8.2-3.695-8.2-8.248 0-4.553 3.673-8.248 8.2-8.248 4.527 0 8.2 3.695 8.2 8.248m4.555 0c0-7.074-5.723-12.83-12.755-12.83-7.033 0-12.755 5.756-12.755 12.83 0 7.073 5.722 12.83 12.755 12.83 7.032 0 12.755-5.757 12.755-12.83m14.577-12.83v25.66c0 4.037-3.274 7.33-7.29 7.33H9.29c-4.016 0-7.29-3.293-7.29-7.33V69.66c0-4.038 3.274-7.33 7.29-7.33h6.376l1.452-3.895C17.83 56.547 20.05 55 22.044 55H36.62c1.993 0 4.214 1.546 4.926 3.437l1.452 3.894h6.377c4.015 0 7.29 3.294 7.29 7.332" fill="#626262"/></g></g></g></svg>