<svg width="72" height="110" viewBox="0 0 72 110" xmlns="http://www.w3.org/2000/svg"><title>unclear</title><g fill="none" fill-rule="evenodd"><circle stroke="#4C4C4C" fill="#F4F4F4" cx="36" cy="40" r="35"/><text font-family="SFUIDisplay-Medium, SF UI Display" font-size="10" font-weight="400" letter-spacing=".667" fill="#4C4C4C"><tspan x="11.862" y="90">UNCLEAR</tspan></text><path d="M32.14 54.054h7.62v7.107h-7.62v-7.106zM23.1 33.472c0-2.085.313-3.98.938-5.686.626-1.705 1.535-3.165 2.73-4.377 1.193-1.214 2.634-2.153 4.32-2.816 1.687-.663 3.573-.995 5.657-.995 1.744 0 3.364.255 4.862.767 1.497.51 2.804 1.25 3.923 2.217 1.118.967 2 2.17 2.643 3.61.645 1.44.967 3.07.967 4.89 0 1.327-.142 2.473-.426 3.44-.285.966-.664 1.8-1.138 2.502-.473.7-1.013 1.326-1.62 1.876-.606.55-1.213 1.09-1.82 1.62-.72.607-1.383 1.194-1.99 1.763-.606.568-1.136 1.203-1.59 1.904-.456.7-.807 1.525-1.053 2.473-.246.947-.37 2.103-.37 3.468h-6.14c0-1.667.085-3.08.256-4.235.17-1.156.444-2.17.823-3.042.38-.872.844-1.64 1.393-2.302.55-.663 1.204-1.317 1.962-1.96.606-.532 1.184-1.024 1.734-1.48.55-.454 1.042-.956 1.478-1.506.436-.55.777-1.165 1.023-1.848.247-.682.37-1.497.37-2.445 0-1.136-.2-2.112-.597-2.927-.398-.815-.88-1.468-1.45-1.96-.568-.494-1.175-.854-1.82-1.08-.644-.23-1.212-.343-1.705-.343-2.35 0-4.083.768-5.2 2.303-1.12 1.535-1.678 3.592-1.678 6.17H23.1z" stroke="#4C4C4C" fill="#FFF"/></g></svg>